HIERARCHY
ROOT root
{
	OFFSET 0.000000 0.000000 0.000000
	CHANNELS 6 Xposition Yposition Zposition Zrotation Yrotation Xrotation
	JOINT lhip
	{
		OFFSET 0.058581 -0.082280 -0.017664
		CHANNELS 3 Zrotation Yrotation Xrotation
		JOINT lknee
		{
			OFFSET 0.043451 -0.386469 0.008037
			CHANNELS 3 Zrotation Yrotation Xrotation
			JOINT lankle
			{
				OFFSET -0.014790 -0.426874 -0.037428
				CHANNELS 3 Zrotation Yrotation Xrotation
				JOINT ltoe
				{
					OFFSET 0.041054 -0.060286 0.122042
					CHANNELS 3 Zrotation Yrotation Xrotation
					End Site
					{
						OFFSET 0.000000 0.000000 0.000000
					}
				}
			}
		}
	}
	JOINT rhip
	{
		OFFSET -0.060310 -0.090513 -0.013543
		CHANNELS 3 Zrotation Yrotation Xrotation
		JOINT rknee
		{
			OFFSET -0.043257 -0.383688 -0.004843
			CHANNELS 3 Zrotation Yrotation Xrotation
			JOINT rankle
			{
				OFFSET 0.019056 -0.420046 -0.034562
				CHANNELS 3 Zrotation Yrotation Xrotation
				JOINT rtoe
				{
					OFFSET -0.034840 -0.062106 0.130323
					CHANNELS 3 Zrotation Yrotation Xrotation
					End Site
					{
						OFFSET 0.000000 0.000000 0.000000
					}
				}
			}
		}
	}
	JOINT lowerback
	{
		OFFSET 0.004439 0.124404 -0.038385
		CHANNELS 3 Zrotation Yrotation Xrotation
		JOINT upperback
		{
			OFFSET 0.004488 0.137956 0.026820
			CHANNELS 3 Zrotation Yrotation Xrotation
			JOINT chest
			{
				OFFSET -0.002265 0.056032 0.002855
				CHANNELS 3 Zrotation Yrotation Xrotation
				JOINT lowerneck
				{
					OFFSET -0.013390 0.211636 -0.033468
					CHANNELS 3 Zrotation Yrotation Xrotation
					JOINT upperneck
					{
						OFFSET 0.010113 0.088937 0.050410
						CHANNELS 3 Zrotation Yrotation Xrotation
						End Site
						{
							OFFSET 0.000000 0.000000 0.000000
						}
					}
				}
				JOINT lclavicle
				{
					OFFSET 0.071702 0.114000 -0.018898
					CHANNELS 3 Zrotation Yrotation Xrotation
					JOINT lshoulder
					{
						OFFSET 0.122921 0.045205 -0.019046
						CHANNELS 3 Zrotation Yrotation Xrotation
						JOINT lelbow
						{
							OFFSET 0.255332 -0.015649 -0.022946
							CHANNELS 3 Zrotation Yrotation Xrotation
							JOINT lwrist
							{
								OFFSET 0.265709 0.012698 -0.007375
								CHANNELS 3 Zrotation Yrotation Xrotation
								End Site
								{
									OFFSET 0.000000 0.000000 0.000000
								}
							}
						}
					}
				}
				JOINT rclavicle
				{
					OFFSET -0.082954 0.112472 -0.023707
					CHANNELS 3 Zrotation Yrotation Xrotation
					JOINT rshoulder
					{
						OFFSET -0.113228 0.046853 -0.008472
						CHANNELS 3 Zrotation Yrotation Xrotation
						JOINT relbow
						{
							OFFSET -0.260127 -0.014369 -0.031269
							CHANNELS 3 Zrotation Yrotation Xrotation
							JOINT rwrist
							{
								OFFSET -0.269108 0.006794 -0.006027
								CHANNELS 3 Zrotation Yrotation Xrotation
								End Site
								{
									OFFSET 0.000000 0.000000 0.000000
								}
							}
						}
					}
				}
			}
		}
	}
}
MOTION
Frames: 14
Frame Time: 0.033333
0.054775 0.227262 1.006244 -154.960553 -1.881368 93.436448 4.445650 -5.781172 -10.859920 -0.358816 -6.208330 6.665559 -2.844218 -0.828774 -6.887371 0.000000 -0.000000 0.000000 -6.186995 -4.985643 -0.027658 0.841457 -11.892775 4.079878 5.131383 -3.550851 -7.540934 0.000000 -0.000000 0.000000 -0.456647 3.551757 -0.407138 -0.686513 -4.031855 5.003951 -1.896851 0.403901 -7.846041 -15.364312 3.973781 16.245383 -4.856003 1.717843 -0.702074 -9.590197 -3.472774 -3.277779 -57.645281 -12.965078 24.150883 159.370470 -70.490394 -139.629233 -35.404216 -28.559016 -7.158679 5.516486 9.988210 -2.732346 36.209662 21.430896 10.289532 -173.568513 52.911845 -159.772046 34.261208 30.083284 -11.439136 
0.054795 0.226845 1.006400 -154.513230 -1.954656 93.540097 4.335006 -5.744041 -11.073007 -0.253893 -6.126561 6.568245 -3.085401 -1.485107 -6.713477 0.000000 -0.000000 0.000000 -6.193589 -5.259172 -0.062317 0.849829 -11.912781 3.970800 4.937453 -3.746693 -7.386915 0.000000 -0.000000 0.000000 -0.094500 3.429428 -0.505673 -0.808420 -3.895378 4.890450 -2.311908 -0.008377 -7.497345 -18.949030 -4.734234 16.094387 -7.605008 -7.329951 -0.871165 -9.387517 -3.310276 -3.415958 -57.447447 -13.008497 24.151587 158.460350 -70.466790 -139.302144 -36.106760 -28.112220 -5.903267 5.654280 10.626667 -3.864728 35.818023 20.811213 10.639672 -173.632046 52.597373 -159.826795 33.861585 30.355140 -11.662863 
0.054595 0.226611 1.006638 -154.250001 -2.060605 93.596486 4.193284 -5.804014 -11.063998 -0.101335 -5.858182 6.299302 -3.303869 -2.016677 -6.572176 0.000000 -0.000000 0.000000 -6.280151 -5.462419 -0.056415 0.873241 -11.975278 3.908999 4.836766 -3.741180 -7.382437 0.000000 -0.000000 0.000000 0.134094 3.383495 -0.687044 -1.068864 -3.740512 4.926743 -2.797601 -0.296518 -7.266687 -21.365864 -10.370617 16.805008 -9.018795 -13.697919 -1.782369 -9.025105 -2.879859 -4.019525 -57.629453 -13.131598 24.524363 157.886074 -70.467769 -138.909710 -37.179793 -27.359049 -4.065712 5.724853 10.988773 -4.804399 35.569336 20.455852 11.196262 -173.148910 52.545367 -159.528962 33.885830 30.623762 -11.853438 
0.054498 0.226434 1.007181 -154.228924 -2.145246 93.563925 4.098773 -5.839849 -10.897612 -0.024395 -5.754861 6.096000 -3.543059 -2.139308 -6.410140 0.000000 -0.000000 0.000000 -6.352330 -5.530927 -0.067104 0.821217 -12.021186 4.037648 4.871748 -3.600366 -7.441513 0.000000 -0.000000 0.000000 0.229067 3.503374 -0.947464 -1.426406 -3.569927 5.023076 -3.201982 -0.476881 -6.700871 -22.246178 -11.880430 17.860066 -9.504516 -15.520025 -2.868278 -8.742044 -2.157606 -5.101532 -58.127313 -13.278950 24.977097 158.472529 -70.497466 -139.179767 -37.568298 -26.555103 -2.931220 5.689788 10.883072 -5.357957 35.444743 20.743592 11.471460 -172.631796 52.618935 -159.402958 33.983521 30.784948 -11.625619 
0.054404 0.226181 1.007556 -154.307951 -2.184606 93.505936 4.066508 -5.961132 -10.786437 -0.012612 -5.758130 6.088559 -3.548192 -2.021579 -6.456780 0.000000 -0.000000 0.000000 -6.399968 -5.456266 -0.115087 0.767116 -12.035656 4.242074 4.918909 -3.478390 -7.568947 0.000000 -0.000000 0.000000 0.396259 3.702264 -1.013650 -1.612520 -3.399515 5.450061 -3.374165 -0.629109 -6.522866 -22.709337 -9.885460 18.396067 -10.432140 -13.223549 -3.662603 -8.541245 -1.594749 -5.685178 -59.031137 -13.344984 25.228106 158.763305 -70.508448 -139.043565 -37.075689 -26.544772 -3.556648 5.089666 10.224581 -5.803145 35.777070 21.694510 11.764793 -172.338083 52.575597 -158.690450 33.496916 30.628853 -11.832569 
0.054286 0.225789 1.007703 -154.583432 -2.228349 93.515036 4.024991 -5.992866 -10.748099 0.003340 -5.505182 6.122116 -3.426736 -1.968907 -6.508084 0.000000 -0.000000 0.000000 -6.508599 -5.361586 -0.303075 0.725574 -12.160895 4.495684 5.019194 -3.133757 -7.607979 0.000000 -0.000000 0.000000 0.738692 3.784156 -0.839217 -1.795676 -3.215603 5.523649 -3.491083 -0.460122 -6.291043 -23.107352 -5.328827 17.845976 -11.848226 -8.784099 -3.380685 -8.159120 -1.220407 -6.136566 -60.151636 -13.111612 25.521260 158.772572 -70.540689 -138.786953 -36.395762 -26.972329 -4.804808 4.828540 9.543099 -5.787863 35.547471 22.988578 11.616856 -172.171494 52.250949 -158.362475 33.682960 30.068583 -10.737195 
0.054280 0.225349 1.007654 -154.907784 -2.304360 93.592866 3.934969 -5.967972 -10.747851 0.024548 -5.349182 6.080067 -3.265111 -1.742984 -6.517458 0.000000 -0.000000 0.000000 -6.579746 -5.122396 -0.489251 0.635693 -12.242611 4.567744 5.175593 -2.957218 -7.623599 0.000000 -0.000000 0.000000 1.255645 3.795581 -0.436623 -2.189707 -3.070699 5.631833 -3.697186 -0.130457 -6.323857 -22.901914 1.223508 16.906610 -12.992805 -2.418966 -3.537622 -7.973239 -1.291571 -6.612667 -60.571663 -12.571933 25.703323 159.196452 -70.156283 -138.661526 -35.528416 -27.529563 -6.413901 4.657184 9.084979 -5.578404 35.547771 23.651686 11.401498 -171.795941 51.614032 -157.515539 33.436496 29.877644 -10.251562 
0.054351 0.225052 1.007394 -155.206141 -2.377077 93.700650 3.850739 -5.859904 -10.753515 0.002577 -5.376942 5.913249 -3.150856 -1.498633 -6.451187 0.000000 -0.000000 0.000000 -6.677045 -5.007904 -0.651422 0.601497 -12.389471 4.529649 5.315446 -2.631439 -7.568272 0.000000 -0.000000 0.000000 1.584776 3.935794 -0.065256 -2.628784 -2.980102 6.182717 -3.680576 0.210555 -6.867251 -22.040737 9.753975 15.839476 -13.463630 5.790165 -3.899734 -8.010653 -2.339163 -6.420267 -60.371273 -11.994542 25.375842 159.169343 -69.649284 -137.980268 -34.505606 -28.421492 -7.646444 4.504405 9.160004 -4.474684 35.200851 23.530934 10.669206 -171.006346 50.680431 -156.941326 33.468792 30.068136 -10.281479 
0.054439 0.225431 1.006847 -155.504820 -2.344085 93.891471 3.859380 -5.597615 -10.767753 0.016129 -5.602687 5.636056 -3.100155 -1.036993 -6.255943 0.000000 -0.000000 0.000000 -6.578975 -4.784778 -0.782347 0.573937 -12.398935 4.229318 5.467475 -2.517953 -7.487032 0.000000 -0.000000 0.000000 1.691886 4.203958 0.280195 -2.998417 -2.944740 6.671013 -3.376328 0.585488 -7.685977 -20.679888 19.097916 15.295179 -13.108393 15.596552 -4.773828 -8.407757 -4.167548 -5.608862 -59.837776 -11.320549 24.741851 158.760159 -69.274275 -136.869823 -33.283427 -28.644419 -9.181359 4.291108 9.418899 -2.806508 34.695037 23.069934 9.441309 -170.580110 50.074659 -156.989832 33.617048 30.460670 -10.904296 
0.054504 0.226160 1.006571 -155.712491 -2.318072 94.010080 3.877063 -5.353339 -10.750941 -0.009009 -5.898794 5.440485 -3.058553 -0.626246 -6.089083 0.000000 -0.000000 0.000000 -6.474849 -4.667371 -0.889873 0.478714 -12.395116 4.116938 5.674297 -2.441526 -7.482875 0.000000 -0.000000 0.000000 1.749347 4.225974 0.811721 -3.383708 -3.114148 6.437861 -2.913159 0.891393 -8.159555 -19.624730 28.621919 15.002973 -12.735108 25.204042 -6.349314 -9.100750 -5.855764 -4.446205 -58.925614 -10.476841 23.396594 159.204097 -68.963577 -136.662196 -32.372468 -28.756951 -9.888489 4.106227 9.869083 -0.257825 34.324259 23.249313 7.497927 -170.593743 49.867030 -157.497049 33.992247 30.874774 -11.382758 
0.054549 0.227007 1.006758 -155.731717 -2.249008 93.975457 3.948339 -5.253050 -10.681648 -0.087790 -6.396365 5.413627 -3.014169 -0.103574 -6.059688 0.000000 -0.000000 0.000000 -6.373454 -4.604895 -0.757397 0.474981 -12.446374 3.968511 5.832218 -2.377421 -7.419974 0.000000 -0.000000 0.000000 1.546485 4.435416 0.985263 -3.523841 -3.250191 6.519168 -2.333139 1.205139 -8.632959 -17.932791 36.133359 15.756606 -11.708462 32.605979 -8.033405 -9.994841 -7.824632 -3.112337 -58.052065 -10.000078 22.128373 158.969758 -69.032432 -136.027758 -31.946707 -28.835627 -9.964866 3.852204 10.194253 1.800102 34.180486 22.999440 5.645492 -171.018846 49.748419 -158.269871 34.633071 31.175536 -11.519263 
0.054786 0.227861 1.006758 -155.753947 -2.127880 93.914859 4.076561 -5.163551 -10.744783 -0.169541 -6.749996 5.640645 -3.061144 0.349776 -6.062309 0.000000 -0.000000 0.000000 -6.208832 -4.590368 -0.700740 0.471143 -12.324438 3.997456 5.921450 -2.473920 -7.515841 0.000000 -0.000000 0.000000 1.122725 4.623394 0.965390 -3.546507 -3.355050 6.757694 -1.840600 1.677988 -9.011725 -15.282535 40.325916 16.361515 -8.948730 36.918053 -8.384579 -11.071945 -9.815558 -1.951345 -56.997222 -9.847107 21.286854 158.127577 -68.980193 -135.474925 -32.042961 -28.389660 -9.209552 3.993631 10.831759 3.371901 33.658287 22.261781 3.826415 -171.244979 49.450882 -158.986345 35.273161 31.123961 -11.075018 
0.055156 0.228296 1.006696 -155.649489 -1.935691 93.800690 4.291837 -5.179798 -10.824198 -0.246815 -7.018289 5.965349 -3.103599 0.574452 -6.108036 0.000000 -0.000000 0.000000 -5.929369 -4.534523 -0.556401 0.450670 -12.205936 3.976050 5.934846 -2.752938 -7.490977 0.000000 -0.000000 0.000000 0.654995 4.815690 0.789570 -3.322537 -3.447253 7.198537 -1.450981 1.764277 -9.155895 -12.176624 40.520311 17.034958 -5.994770 37.734859 -8.211268 -12.329832 -11.043577 -1.659228 -55.901716 -9.665313 21.063236 157.632689 -68.775978 -135.250842 -32.356473 -27.935084 -8.414799 4.185530 11.789109 3.632767 33.267305 21.343180 3.305589 -171.176003 49.110971 -159.076130 35.010907 31.009528 -11.684406 
0.055675 0.228519 1.006304 -155.522007 -1.689261 93.743441 4.592177 -5.329592 -10.913609 -0.252218 -7.139460 6.237049 -3.195999 0.772722 -6.253246 0.000000 -0.000000 0.000000 -5.587909 -4.510896 -0.417360 0.488095 -12.061455 3.879511 5.703497 -3.077450 -7.540556 0.000000 -0.000000 0.000000 -0.089323 5.145388 0.465776 -2.857669 -3.490682 7.516576 -1.095688 1.564008 -9.083761 -8.510311 37.671184 17.528886 -2.543311 35.873114 -7.153388 -12.833702 -11.238440 -2.083836 -55.853219 -9.923276 21.847449 157.052591 -68.567357 -134.696812 -32.482778 -27.207627 -7.478526 4.581104 12.182979 2.745509 33.251944 20.844628 3.977626 -170.886258 49.282196 -158.809041 34.723149 31.156336 -12.572101 
